<svg width="129" height="46" viewBox="0 0 129 46" fill="none" xmlns="http://www.w3.org/2000/svg">
<g clip-path="url(#clip0_24_730)">
<path d="M20.0027 9.4483L14.234 36.0938H19.2232C21.8424 36.0938 24.0356 35.8066 25.8026 35.2323C27.5904 34.6374 29.1391 33.6938 30.4488 32.4016C32.0495 30.8221 33.2863 28.9452 34.1595 26.771C35.0534 24.5761 35.5003 22.3095 35.5003 19.9712C35.5003 16.6276 34.544 14.0431 32.6316 12.2175C30.719 10.3714 27.9957 9.4483 24.4618 9.4483H20.0027ZM9.71255 1.01778H24.4618C32.2573 1.01778 38.0573 2.60749 41.8615 5.78689C45.6657 8.96631 47.5679 13.8174 47.5679 20.3403C47.5679 24.0941 46.9027 27.5709 45.5722 30.7708C44.2625 33.9502 42.402 36.5656 39.9906 38.6168C37.5168 40.75 34.6168 42.309 31.2907 43.2936C27.9646 44.2576 23.8174 44.7397 18.8489 44.7397H0.32666L9.71255 1.01778ZM88.3547 2.00237L85.6105 10.5252C83.9891 9.80729 82.3466 9.27395 80.6836 8.92529C79.0207 8.55603 77.3156 8.37146 75.5696 8.37146C72.9296 8.37146 70.9026 8.76114 69.4887 9.54062C68.0965 10.2996 67.3998 11.4073 67.3998 12.8636C67.3998 14.4431 68.9797 15.8789 72.1396 17.1712C73.4079 17.684 74.4054 18.1148 75.1328 18.4635C78.8125 20.2276 81.3178 21.9505 82.648 23.6326C83.9782 25.3146 84.6437 27.4581 84.6437 30.0632C84.6437 34.8425 82.7936 38.6578 79.0935 41.509C75.3927 44.3397 70.3726 45.755 64.0324 45.755C61.3505 45.755 58.7727 45.5499 56.2989 45.1397C53.8459 44.75 51.476 44.1551 49.1894 43.3551L51.7463 34.34C53.5964 35.2425 55.3842 35.9194 57.1096 36.3707C58.8559 36.822 60.5605 37.0476 62.2235 37.0476C65.2585 37.0476 67.6495 36.5553 69.3955 35.5707C71.1415 34.5861 72.0151 33.2528 72.0151 31.5708C72.0151 29.4581 69.6969 27.4889 65.0612 25.6633C63.897 25.212 62.9927 24.8531 62.3483 24.5864C59.8329 23.5402 57.962 22.1659 56.7355 20.4634C55.509 18.7609 54.8957 16.7097 54.8957 14.3097C54.8957 10.0842 56.6108 6.65869 60.0408 4.03309C63.4709 1.38701 67.9714 0.0639648 73.5426 0.0639648C76.6399 0.0639648 79.4364 0.228063 81.9308 0.556259C84.4463 0.884459 86.5876 1.36649 88.3547 2.00237ZM94.5594 1.01778H128.86L127.02 9.4483H115.701L108.093 44.7397H96.1502L103.759 9.4483H92.7822L94.5594 1.01778Z" fill="white"/>
</g>
<defs>
<clipPath id="clip0_24_730">
<rect width="129" height="46" fill="white"/>
</clipPath>
</defs>
</svg>
