<svg width="46" height="58" viewBox="0 0 46 58" fill="none" xmlns="http://www.w3.org/2000/svg">
<path d="M43.3807 44.4667C43.189 44.4667 43.0612 44.4022 42.9334 44.3378L20.189 31.4489L2.55566 31.8356C2.17232 31.8356 1.78899 31.5778 1.66121 31.1911C1.53343 30.8044 1.66121 30.3533 1.91677 30.0956L35.139 1.86889C35.3945 1.67556 35.7779 1.61111 36.0973 1.67556C36.4168 1.80445 36.6723 2.06222 36.7362 2.38445L44.339 43.3067C44.4029 43.6933 44.2751 44.08 43.9557 44.2733C43.764 44.4022 43.5723 44.4667 43.3807 44.4667ZM20.4445 29.58C20.6362 29.58 20.764 29.6444 20.8918 29.7089L42.039 41.6956L35.139 4.38222L5.23899 29.8378L20.4445 29.58Z" fill="white"/>
<path d="M20.4447 44.4667C20.3808 44.4667 20.3169 44.4667 20.1891 44.4667C19.7419 44.3378 19.4863 43.9511 19.4863 43.5V30.5467C19.4863 30.3533 19.5502 30.2244 19.6141 30.0956L34.9474 2.19111C35.203 1.74 35.778 1.54667 36.2252 1.80445C36.6724 2.06222 36.8641 2.64222 36.6085 3.09334L21.3391 30.8044V39.6333L24.7891 33.06C25.0447 32.6089 25.6197 32.4156 26.0669 32.6733C26.5141 32.9311 26.7058 33.5111 26.4502 33.9622L21.2113 43.9511C21.0836 44.2733 20.7641 44.4667 20.4447 44.4667Z" fill="white"/>
</svg>
